<?xml version="1.0" encoding="iso-8859-1"?>
<!-- Generator: Adobe Illustrator 19.0.0, SVG Export Plug-In . SVG Version: 6.00 Build 0)  -->
<svg version="1.1" id="Layer_1" xmlns="http://www.w3.org/2000/svg" xmlns:xlink="http://www.w3.org/1999/xlink" x="0px" y="0px"
	 viewBox="0 0 512 512" style="enable-background:new 0 0 512 512;" xml:space="preserve">
<path style="fill:#CFF09E;" d="M108.299,241.684v197.486c0,32.32,26.2,58.52,58.52,58.52H345.18c32.32,0,58.52-26.2,58.52-58.52
	V241.684H108.299z M255.999,407.851c-26.346,0-47.702-21.358-47.702-47.702c0-26.346,21.358-47.702,47.702-47.702
	s47.702,21.358,47.702,47.702C303.702,386.494,282.344,407.851,255.999,407.851z"/>
<g>
	<path style="fill:#507C5C;" d="M345.18,512H166.819c-40.157,0-72.828-32.672-72.828-72.829V241.684
		c0-7.903,6.408-14.309,14.309-14.309h295.4c7.902,0,14.309,6.406,14.309,14.309v197.486C418.008,479.329,385.337,512,345.18,512z
		 M122.608,255.994v183.177c0,24.378,19.832,44.211,44.21,44.211h178.361c24.377,0,44.21-19.832,44.21-44.211V255.994H122.608z
		 M255.999,422.16c-34.193,0-62.013-27.818-62.013-62.012s27.818-62.012,62.013-62.012s62.013,27.818,62.013,62.012
		S290.192,422.16,255.999,422.16z M255.999,326.755c-18.413,0-33.395,14.98-33.395,33.393s14.982,33.393,33.395,33.393
		s33.395-14.98,33.395-33.393S274.412,326.755,255.999,326.755z"/>
	<path style="fill:#507C5C;" d="M139.126,255.994c-7.902,0-14.309-6.406-14.309-14.309V124.022C124.817,55.635,180.453,0,248.839,0
		h14.321c68.386,0,124.022,55.635,124.022,124.022c0,7.903-6.408,14.309-14.309,14.309s-14.309-6.406-14.309-14.309
		c0-52.606-42.797-95.403-95.403-95.403h-14.321c-52.606,0-95.403,42.797-95.403,95.403v117.663
		C153.436,249.587,147.028,255.994,139.126,255.994z"/>
	<path style="fill:#507C5C;" d="M162.545,234.538H114.37c-7.902,0-14.309-6.406-14.309-14.309s6.408-14.309,14.309-14.309h48.175
		c7.902,0,14.309,6.406,14.309,14.309S170.448,234.538,162.545,234.538z"/>
	<path style="fill:#507C5C;" d="M397.627,234.538h-48.175c-7.902,0-14.309-6.406-14.309-14.309s6.408-14.309,14.309-14.309h48.175
		c7.902,0,14.309,6.406,14.309,14.309S405.53,234.538,397.627,234.538z"/>
</g>
<g>
</g>
<g>
</g>
<g>
</g>
<g>
</g>
<g>
</g>
<g>
</g>
<g>
</g>
<g>
</g>
<g>
</g>
<g>
</g>
<g>
</g>
<g>
</g>
<g>
</g>
<g>
</g>
<g>
</g>
</svg>
