<svg height="512pt" viewBox="0 0 512 512" width="512pt" xmlns="http://www.w3.org/2000/svg" xmlns:xlink="http://www.w3.org/1999/xlink"><linearGradient id="a" gradientUnits="userSpaceOnUse" x1="0" x2="512" y1="256" y2="256"><stop offset="0" stop-color="#00f38d"/><stop offset="1" stop-color="#009eff"/></linearGradient><path d="m512 256c0 141.386719-114.613281 256-256 256s-256-114.613281-256-256 114.613281-256 256-256 256 114.613281 256 256zm0 0" fill="url(#a)"/><g fill="#fff"><path d="m207.6875 182.550781-18.457031 18.457031 21.214843 21.210938 18.417969-18.421875c4.632813 2.722656 9.660157 4.839844 14.988281 6.21875v25.695313h30v-25.835938c5.140626-1.378906 10.003907-3.441406 14.492188-6.078125l18.421875 18.421875 21.210937-21.210938-18.457031-18.457031c2.65625-4.554687 4.726563-9.484375 6.089844-14.703125h26.105469v-30h-26.179688c-1.378906-5.1875-3.453125-10.089844-6.109375-14.613281l18.550781-18.550781-21.210937-21.210938-18.585937 18.585938c-4.445313-2.589844-9.25-4.621094-14.332032-5.984375v-26.09375h-30v25.953125c-5.261718 1.363281-10.234375 3.449218-14.820312 6.125l-18.585938-18.585938-21.210937 21.214844 18.550781 18.550781c-2.660156 4.523438-4.734375 9.421875-6.109375 14.609375h-26.414063v30h26.339844c1.363282 5.21875 3.433594 10.148438 6.089844 14.703125zm34.445312-53.316406c4.679688-3.257813 10.355469-5.171875 16.472657-5.171875 15.050781 0 27.449219 11.570312 28.785156 26.28125v5.261719c-1.335937 14.710937-13.734375 26.28125-28.785156 26.28125-15.945313 0-28.914063-12.972657-28.914063-28.910157 0-6.117187 1.914063-11.792968 5.167969-16.472656zm0 0"/><path d="m217.515625 288.992188 92.050781-.03125c.539063 0 1.078125 0 1.617188.007812l.003906-.003906c26.957031.324218 52.828125 7.101562 74.75 22.789062l29.234375 20.917969v-32.726563l-13.746094-9.835937c-26.371093-18.871094-57.429687-30.746094-89.855469-31.140625h.003907c-.667969-.007812-1.339844-.011719-2.015625-.011719l-92.050782.035157c-14.011718 0-26.3125 7.441406-33.175781 18.574218l-40.742187-39.984375c-7.839844-7.691406-18.175782-11.914062-29.140625-11.914062-.132813 0-.265625 0-.398438.003906-11.117187.101563-21.527343 4.53125-29.308593 12.464844-7.789063 7.929687-12.019532 18.421875-11.914063 29.539062.105469 11.113281 4.53125 21.519531 12.464844 29.308594l98.757812 96.917969c13.21875 12.972656 30.699219 20.117187 49.21875 20.117187h181.898438v-30h-181.898438c-10.613281 0-20.628906-4.09375-28.203125-11.53125l-98.757812-96.917969c-2.214844-2.171874-3.449219-5.078124-3.480469-8.179687-.027344-3.101563 1.152344-6.027344 3.328125-8.242187 2.171875-2.214844 5.074219-3.449219 8.175781-3.480469h.113281c3.058594 0 5.941407 1.179687 8.128907 3.324219l63.863281 62.671874.109375-.109374c2.503906 3.285156 5.535156 6.199218 9.042969 8.589843 3.707031 2.523438 11.050781 6.96875 18.578125 8.351563 4.160156.765625 74.992187 8.28125 105.253906 11.480468l3.148437-29.835937c-38.597656-4.074219-97.46875-10.367187-103.0625-11.167969-.878906-.203125-3.660156-1.328125-7.023437-3.617187-2.457031-1.675781-3.925781-4.445313-3.925781-7.410157 0-4.9375 4.015625-8.953124 8.957031-8.953124zm0 0"/></g></svg>