<?xml version="1.0" encoding="UTF-8" standalone="no"?>
<!-- Generator: Adobe Illustrator 19.0.0, SVG Export Plug-In . SVG Version: 6.00 Build 0)  -->

<svg
   xmlns:dc="http://purl.org/dc/elements/1.1/"
   xmlns:cc="http://creativecommons.org/ns#"
   xmlns:rdf="http://www.w3.org/1999/02/22-rdf-syntax-ns#"
   xmlns:svg="http://www.w3.org/2000/svg"
   xmlns="http://www.w3.org/2000/svg"
   xmlns:xlink="http://www.w3.org/1999/xlink"
   xmlns:sodipodi="http://sodipodi.sourceforge.net/DTD/sodipodi-0.dtd"
   xmlns:inkscape="http://www.inkscape.org/namespaces/inkscape"
   version="1.1"
   id="Layer_1"
   x="0px"
   y="0px"
   viewBox="0 0 509.287 509.287"
   style="enable-background:new 0 0 509.287 509.287;"
   xml:space="preserve"
   sodipodi:docname="wifi (1).svg"
   inkscape:version="0.92.3 (2405546, 2018-03-11)"><metadata
   id="metadata59"><rdf:RDF><cc:Work
       rdf:about=""><dc:format>image/svg+xml</dc:format><dc:type
         rdf:resource="http://purl.org/dc/dcmitype/StillImage" /></cc:Work></rdf:RDF></metadata><defs
   id="defs57"><linearGradient
     inkscape:collect="always"
     id="linearGradient4804"><stop
       style="stop-color:#96c9b1;stop-opacity:1;"
       offset="0"
       id="stop4800" /><stop
       style="stop-color:#96c9b1;stop-opacity:0;"
       offset="1"
       id="stop4802" /></linearGradient><linearGradient
     inkscape:collect="always"
     xlink:href="#linearGradient4804"
     id="linearGradient4806"
     x1="38.9935"
     y1="254.17739"
     x2="470.6325"
     y2="254.17739"
     gradientUnits="userSpaceOnUse" /></defs><sodipodi:namedview
   pagecolor="#ffffff"
   bordercolor="#666666"
   borderopacity="1"
   objecttolerance="10"
   gridtolerance="10"
   guidetolerance="10"
   inkscape:pageopacity="0"
   inkscape:pageshadow="2"
   inkscape:window-width="1366"
   inkscape:window-height="700"
   id="namedview55"
   showgrid="false"
   inkscape:zoom="0.46339295"
   inkscape:cx="-180.19264"
   inkscape:cy="254.64349"
   inkscape:window-x="0"
   inkscape:window-y="0"
   inkscape:window-maximized="1"
   inkscape:current-layer="Layer_1" />

<g
   id="g8">
	<path
   style="fill:#FBD303;"
   d="M254.644,478.771c-9.494,0-16.954-7.46-16.954-16.954V288.212c0-9.494,7.46-16.954,16.954-16.954   s16.954,7.46,16.954,16.954v173.605C271.597,471.311,264.138,478.771,254.644,478.771z"
   id="path4" />
	<circle
   style="fill:#FBD303;"
   cx="254.644"
   cy="254.644"
   r="40.689"
   id="circle6" />
</g>
<g
   id="g22"
   style="fill:#f0d737;fill-opacity:1">
	<path
   style="fill:#f0d737;fill-opacity:1"
   d="M182.082,327.205c-40.011-40.011-40.011-105.113,0-145.123c6.781-6.781,17.293-6.781,24.074,0   c6.781,6.781,6.781,17.293,0,24.074c-26.787,26.787-26.787,70.188,0,96.975c6.781,6.781,7.46,17.971,0,24.074   C197.679,333.987,185.473,330.596,182.082,327.205z"
   id="path10" />
	<path
   style="fill:#f0d737;fill-opacity:1"
   d="M303.131,327.205c-7.121-6.103-6.781-17.293,0-24.074c26.787-26.787,26.787-70.188,0-96.975   c-6.781-6.781-6.781-17.293,0-24.074c6.781-6.781,17.293-6.781,24.074,0c40.011,40.011,40.011,105.113,0,145.123   C323.815,330.596,311.608,334.665,303.131,327.205z"
   id="path12" />
	<path
   style="fill:#f0d737;fill-opacity:1"
   d="M140.037,369.25c-63.407-63.407-63.407-166.146,0-229.552c6.781-6.781,17.293-6.781,24.074,0   c6.781,6.781,6.781,17.293,0,24.074c-50.183,50.183-50.183,131.56-0.339,181.743c6.781,6.781,7.46,18.31,0,24.074   C154.617,376.371,143.089,372.641,140.037,369.25z"
   id="path14" />
	<path
   style="fill:#f0d737;fill-opacity:1"
   d="M345.515,369.25c-7.121-6.103-6.781-17.293,0-24.074c50.183-50.183,50.183-131.56,0-181.404   c-6.781-6.781-6.781-17.293,0-24.074s17.293-6.781,24.074,0c63.407,63.407,63.407,166.146,0,229.552   C366.199,372.641,354.67,377.727,345.515,369.25z"
   id="path16" />
	<path
   style="fill:#f0d737;fill-opacity:1"
   d="M102.061,407.226c-84.09-84.09-84.09-221.075,0-305.505c6.781-6.781,17.293-6.781,24.074,0   c6.781,6.781,6.781,17.293,0,24.074c-70.866,70.866-70.866,186.49,0,257.356c6.781,6.781,7.121,17.971,0,24.074   C116.641,415.025,105.113,410.617,102.061,407.226z"
   id="path18" />
	<path
   style="fill:#f0d737;fill-opacity:1"
   d="M383.491,407.226c-6.781-6.442-6.781-17.293,0-24.074c70.866-70.866,70.866-186.49,0-257.356   c-6.781-6.781-6.781-17.293,0-24.074c6.781-6.781,17.293-6.781,24.074,0c84.09,84.09,84.09,221.075,0,305.505   C404.175,410.617,391.629,415.364,383.491,407.226z"
   id="path20" />
</g>
<g
   id="g24">
</g>
<g
   id="g26">
</g>
<g
   id="g28">
</g>
<g
   id="g30">
</g>
<g
   id="g32">
</g>
<g
   id="g34">
</g>
<g
   id="g36">
</g>
<g
   id="g38">
</g>
<g
   id="g40">
</g>
<g
   id="g42">
</g>
<g
   id="g44">
</g>
<g
   id="g46">
</g>
<g
   id="g48">
</g>
<g
   id="g50">
</g>
<g
   id="g52">
</g>
</svg>