<?xml version="1.0" encoding="iso-8859-1"?>
<!-- Generator: Adobe Illustrator 16.0.0, SVG Export Plug-In . SVG Version: 6.00 Build 0)  -->
<!DOCTYPE svg PUBLIC "-//W3C//DTD SVG 1.1//EN" "http://www.w3.org/Graphics/SVG/1.1/DTD/svg11.dtd">
<svg version="1.1" id="Capa_1" xmlns="http://www.w3.org/2000/svg" xmlns:xlink="http://www.w3.org/1999/xlink" x="0px" y="0px"
	 width="612.02px" height="612.02px" viewBox="0 0 612.02 612.02" style="enable-background:new 0 0 612.02 612.02;"
	 xml:space="preserve">
<g>
	<g>
		<path d="M65.602,612.02c-36.164,0-65.592-29.438-65.592-65.602c0-19.811,8.818-38.357,24.19-50.867l140.104-129.354
			c-22.825-37.65-34.849-80.65-34.849-124.915C129.455,108.238,237.682,0,370.727,0C503.771,0,612.01,108.238,612.01,241.273
			c0,133.034-108.238,241.272-241.283,241.272c-38.438,0-76.463-9.223-110.452-26.748L112.556,592.189
			C100.481,604.82,83.643,612.02,65.602,612.02z M370.727,20.226c-121.89,0-221.046,99.167-221.046,221.047
			c0,43.192,12.489,85.069,36.113,121.09c2.721,4.137,2.043,9.629-1.598,12.977L37.448,510.82
			c-11.114,9.072-17.212,21.895-17.212,35.598c0,25.02,20.357,45.367,45.366,45.367c12.469,0,24.12-4.986,32.796-14.037
			L251.83,436.066c3.196-2.953,7.949-3.549,11.771-1.416c32.604,18.092,69.647,27.66,107.115,27.66
			c121.891,0,221.057-99.168,221.057-221.048C591.784,119.393,492.617,20.226,370.727,20.226z M370.727,408.59
			c-92.249,0-167.287-75.057-167.287-167.317c0-92.25,75.048-167.297,167.287-167.297c92.26,0,167.317,75.048,167.317,167.297
			C538.044,333.533,462.986,408.59,370.727,408.59z M370.727,94.202c-81.095,0-147.061,65.976-147.061,147.071
			c0,81.116,65.976,147.092,147.061,147.092c81.105,0,147.092-65.977,147.092-147.092
			C517.818,160.188,451.832,94.202,370.727,94.202z"/>
	</g>
</g>
<g>
</g>
<g>
</g>
<g>
</g>
<g>
</g>
<g>
</g>
<g>
</g>
<g>
</g>
<g>
</g>
<g>
</g>
<g>
</g>
<g>
</g>
<g>
</g>
<g>
</g>
<g>
</g>
<g>
</g>
</svg>
