<svg height="512pt" viewBox="-91 0 512 512" width="512pt" xmlns="http://www.w3.org/2000/svg"><path d="m195 421h-60c-8.402344 0-15 6.597656-15 15v61c0 8.398438 6.597656 15 15 15h60c8.402344 0 15-6.601562 15-15v-61c0-8.402344-6.597656-15-15-15zm0 0" fill="#384949"/><path d="m210 436v61c0 8.398438-6.597656 15-15 15h-30v-91h30c8.402344 0 15 6.597656 15 15zm0 0" fill="#293939"/><g fill="#384949"><path d="m75 150c-41.351562 0-75-33.648438-75-75 0-8.289062 6.710938-15 15-15h60c8.289062 0 15 6.710938 15 15v60c0 8.289062-6.710938 15-15 15zm0 0"/><path d="m75 271c-41.351562 0-75-33.648438-75-75 0-8.289062 6.710938-15 15-15h60c8.289062 0 15 6.710938 15 15v60c0 8.289062-6.710938 15-15 15zm0 0"/><path d="m75 391c-41.351562 0-75-33.648438-75-75 0-8.289062 6.710938-15 15-15h60c8.289062 0 15 6.710938 15 15v60c0 8.289062-6.710938 15-15 15zm0 0"/></g><path d="m225 0h-120c-24.902344 0-45 20.097656-45 45v361c0 24.898438 20.097656 45 45 45h120c24.902344 0 45-20.101562 45-45v-361c0-24.902344-20.097656-45-45-45zm0 0" fill="#4a696f"/><path d="m255 150c-8.289062 0-15-6.710938-15-15v-60c0-8.289062 6.710938-15 15-15h60c8.289062 0 15 6.710938 15 15 0 41.351562-33.648438 75-75 75zm0 0" fill="#293939"/><path d="m255 271c-8.289062 0-15-6.710938-15-15v-60c0-8.289062 6.710938-15 15-15h60c8.289062 0 15 6.710938 15 15 0 41.351562-33.648438 75-75 75zm0 0" fill="#293939"/><path d="m255 391c-8.289062 0-15-6.710938-15-15v-60c0-8.289062 6.710938-15 15-15h60c8.289062 0 15 6.710938 15 15 0 41.351562-33.648438 75-75 75zm0 0" fill="#293939"/><path d="m270 45v361c0 24.898438-20.097656 45-45 45h-60v-451h60c24.902344 0 45 20.097656 45 45zm0 0" fill="#3e5959"/><path d="m165 60c-24.902344 0-45 20.097656-45 45 0 24.898438 20.097656 45 45 45s45-20.101562 45-45c0-24.902344-20.097656-45-45-45zm0 0" fill="#e63950"/><path d="m165 181c-24.902344 0-45 20.097656-45 45 0 24.898438 20.097656 45 45 45s45-20.101562 45-45c0-24.902344-20.097656-45-45-45zm0 0" fill="#fdbf00"/><path d="m165 301c-24.902344 0-45 20.097656-45 45 0 24.898438 20.097656 45 45 45s45-20.101562 45-45c0-24.902344-20.097656-45-45-45zm0 0" fill="#a8d32a"/><path d="m210 346c0 24.898438-20.097656 45-45 45v-90c24.902344 0 45 20.097656 45 45zm0 0" fill="#93bf00"/><path d="m210 226c0 24.898438-20.097656 45-45 45v-90c24.902344 0 45 20.097656 45 45zm0 0" fill="#ff9f00"/><path d="m165 150v-90c24.902344 0 45 20.097656 45 45 0 24.898438-20.097656 45-45 45zm0 0" fill="#cc2e43"/></svg>